{
  "accessors": [
    {
      "bufferView": 2,
      "componentType": 5126,
      "count": 12864,
      "max": [
        0.5434219837188721,
        0.5370879769325256,
        2.1387040615081787
      ],
      "min": [
        -0.5434219837188721,
        -0.5517330169677734,
        -0.04295499995350838
      ],
      "type": "VEC3"
    },
    {
      "bufferView": 2,
      "byteOffset": 154368,
      "componentType": 5126,
      "count": 12864,
      "max": [
        0.9999843835830688,
        0.9999814033508301,
        0.9998890161514282
      ],
      "min": [
        -0.9999843835830688,
        -0.9999992847442627,
        -1.0
      ],
      "type": "VEC3"
    },
    {
      "bufferView": 1,
      "componentType": 5126,
      "count": 12864,
      "max": [
        0.9917190074920654,
        0.978534996509552
      ],
      "min": [
        0.018371999263763428,
        0.023883000016212463
      ],
      "type": "VEC2"
    },
    {
      "bufferView": 0,
      "componentType": 5125,
      "count": 72816,
      "type": "SCALAR"
    }
  ],
  "asset": {
    "extras": {
      "author": "3Dimentional (https://sketchfab.com/insectscorch)",
      "license": "CC-BY-4.0 (http://creativecommons.org/licenses/by/4.0/)",
      "source": "https://sketchfab.com/3d-models/cartoon-character-base-mesh-30de486d04cc4883933480124af8ccea",
      "title": "Cartoon Character Base Mesh"
    },
    "generator": "Sketchfab-12.67.0",
    "version": "2.0"
  },
  "bufferViews": [
    {
      "buffer": 0,
      "byteLength": 291264,
      "name": "floatBufferViews",
      "target": 34963
    },
    {
      "buffer": 0,
      "byteLength": 102912,
      "byteOffset": 291264,
      "byteStride": 8,
      "name": "floatBufferViews",
      "target": 34962
    },
    {
      "buffer": 0,
      "byteLength": 308736,
      "byteOffset": 394176,
      "byteStride": 12,
      "name": "floatBufferViews",
      "target": 34962
    }
  ],
  "buffers": [
    {
      "byteLength": 702912,
      "uri": "scene.bin"
    }
  ],
  "materials": [
    {
      "doubleSided": true,
      "name": "None",
      "pbrMetallicRoughness": {
        "metallicFactor": 0.0,
        "roughnessFactor": 0.6
      }
    }
  ],
  "meshes": [
    {
      "name": "Object_0",
      "primitives": [
        {
          "attributes": {
            "NORMAL": 1,
            "POSITION": 0,
            "TEXCOORD_0": 2
          },
          "indices": 3,
          "material": 0,
          "mode": 4
        }
      ]
    }
  ],
  "nodes": [
    {
      "children": [
        1
      ],
      "matrix": [
        1.0,
        0.0,
        0.0,
        0.0,
        0.0,
        2.220446049250313e-16,
        -1.0,
        0.0,
        0.0,
        1.0,
        2.220446049250313e-16,
        0.0,
        0.0,
        0.0,
        0.0,
        1.0
      ],
      "name": "Sketchfab_model"
    },
    {
      "children": [
        2
      ],
      "name": "blank_body.obj.cleaner.materialmerger.gles"
    },
    {
      "mesh": 0,
      "name": "Object_2"
    }
  ],
  "scene": 0,
  "scenes": [
    {
      "name": "Sketchfab_Scene",
      "nodes": [
        0
      ]
    }
  ]
}
